<svg width="20" height="20" viewBox="0 0 20 20" fill="none" xmlns="http://www.w3.org/2000/svg">
<g clip-path="url(#clip0_1_109)">
<path fill-rule="evenodd" clip-rule="evenodd" d="M16.6922 12.9422C16.575 13.0595 16.4159 13.1255 16.25 13.1255C16.0841 13.1255 15.925 13.0595 15.8078 12.9422L10 7.13359L4.19219 12.9422C3.94797 13.1864 3.55203 13.1864 3.30781 12.9422C3.0636 12.698 3.0636 12.302 3.30781 12.0578L9.55781 5.80781C9.67504 5.69045 9.83412 5.62451 10 5.62451C10.1659 5.62451 10.325 5.69045 10.4422 5.80781L16.6922 12.0578C16.8095 12.175 16.8755 12.3341 16.8755 12.5C16.8755 12.6659 16.8095 12.825 16.6922 12.9422Z" fill="#0D121C"/>
</g>
<defs>
<clipPath id="clip0_1_109">
<rect width="20" height="20" fill="white"/>
</clipPath>
</defs>
</svg>
