<svg width="7" height="7" viewBox="0 0 7 7" fill="none" xmlns="http://www.w3.org/2000/svg">
<g clip-path="url(#clip0_47_25)">
<path d="M7 3.59725C7 3.27855 6.81139 3.01314 6.55803 2.93905C6.29358 1.48908 5.02639 0.388916 3.5 0.388916C1.97361 0.388916 0.706417 1.48908 0.441972 2.93905C0.188611 3.01314 0 3.27855 0 3.59725C0 3.9348 0.211361 4.21325 0.488056 4.26653C0.830083 5.61325 2.04692 6.61114 3.5 6.61114C4.95308 6.61114 6.16992 5.61325 6.51194 4.26653C6.78844 4.21325 7 3.9348 7 3.59725Z" fill="#FFDC5D"/>
<path d="M3.50043 4.86111C2.9171 4.86111 2.72266 4.66667 2.72266 5.05556C2.72266 5.44444 3.11155 5.83333 3.50043 5.83333C3.88932 5.83333 4.27821 5.44444 4.27821 5.05556C4.27821 4.66667 4.08377 4.86111 3.50043 4.86111Z" fill="#662214"/>
<path d="M4.37478 4.08331C4.64325 4.08331 4.86089 3.86567 4.86089 3.5972C4.86089 3.32872 4.64325 3.11108 4.37478 3.11108C4.10631 3.11108 3.88867 3.32872 3.88867 3.5972C3.88867 3.86567 4.10631 4.08331 4.37478 4.08331Z" fill="#662214"/>
<path d="M2.62478 4.08331C2.89325 4.08331 3.11089 3.86567 3.11089 3.5972C3.11089 3.32872 2.89325 3.11108 2.62478 3.11108C2.35631 3.11108 2.13867 3.32872 2.13867 3.5972C2.13867 3.86567 2.35631 4.08331 2.62478 4.08331Z" fill="#662214"/>
<path d="M3.5 5.05566H3.88889V5.25011C3.88889 5.25011 3.88889 5.44455 3.69444 5.44455C3.5 5.44455 3.5 5.25011 3.5 5.25011V5.05566Z" fill="white"/>
<path d="M3.49659 2.1389H3.49056C3.37716 2.13954 3.26479 2.11742 3.16008 2.07387C3.05538 2.03032 2.96047 1.96621 2.88097 1.88535C2.80923 1.8129 2.75353 1.72618 2.71749 1.63081C2.68144 1.53544 2.66586 1.43355 2.67175 1.33176C2.67316 1.30628 2.67961 1.28133 2.69074 1.25836C2.70186 1.23538 2.71743 1.21485 2.73655 1.19794C2.75566 1.18103 2.77795 1.16808 2.8021 1.15984C2.82626 1.15161 2.85181 1.14825 2.87728 1.14996C2.98442 1.15637 3.06628 1.24874 3.05986 1.35607C3.05422 1.45232 3.09 1.54721 3.15767 1.61585C3.20139 1.66053 3.25356 1.69607 3.31114 1.72041C3.36873 1.74474 3.43057 1.75738 3.49309 1.7576C3.62006 1.7506 3.74003 1.70957 3.83045 1.62051C3.95164 1.50062 4.02035 1.33756 4.02152 1.16709C4.02269 0.996618 3.95621 0.832637 3.83667 0.711097C3.6777 0.550353 3.46146 0.459221 3.23539 0.45769C3.00931 0.456159 2.79186 0.544354 2.63072 0.70293C2.61254 0.720856 2.59101 0.735025 2.56735 0.744628C2.5437 0.754231 2.51838 0.759081 2.49285 0.758901C2.44129 0.758536 2.39198 0.737703 2.35578 0.700986C2.31958 0.664268 2.29944 0.614673 2.29981 0.563111C2.30017 0.511549 2.32101 0.462243 2.35772 0.426041C2.59238 0.195216 2.90899 0.0668612 3.23813 0.0691211C3.56728 0.0713811 3.8821 0.204071 4.11356 0.438097C4.20855 0.534292 4.28365 0.648271 4.33456 0.773514C4.38547 0.898757 4.41119 1.03281 4.41025 1.168C4.40931 1.30319 4.38173 1.43687 4.32909 1.56139C4.27644 1.68592 4.19977 1.79884 4.10345 1.89371C3.94089 2.05432 3.72525 2.1389 3.49659 2.1389Z" fill="#EF9645"/>
</g>
<defs>
<clipPath id="clip0_47_25">
<rect width="7" height="7" fill="white"/>
</clipPath>
</defs>
</svg>
