<svg width="8" height="9" viewBox="0 0 8 9" fill="none" xmlns="http://www.w3.org/2000/svg">
<path d="M6.24992 2.17557C6.66823 2.60101 6.90647 3.17035 6.91371 3.76191C6.92096 4.35347 6.69665 4.92033 6.28871 5.34135C5.88077 5.76237 5.32156 6.00416 4.73058 6.01505C4.1396 6.02594 3.56373 5.80506 3.12603 5.39962L2.96477 5.23515C2.56806 4.78952 2.3586 4.2094 2.38116 3.61875C2.40372 3.02811 2.65652 2.47378 3.08551 2.07424C3.51451 1.67469 4.08569 1.46162 4.67699 1.48056C5.26829 1.49949 5.83281 1.74893 6.24992 2.17557ZM2.74459 6.25235C3.38636 6.74254 4.18547 6.97501 4.98154 6.90311C5.77761 6.8312 6.51173 6.46023 7.03656 5.86466C7.56139 5.26909 7.83809 4.49299 7.81113 3.69212C7.78417 2.89125 7.45554 2.12488 6.8912 1.54682C6.32528 0.967565 5.56457 0.620717 4.7625 0.576245C3.96044 0.531772 3.17672 0.792985 2.56942 1.30719C1.96213 1.8214 1.57646 2.55033 1.49021 3.34696C1.40396 4.14358 1.62355 4.94861 2.10468 5.59966L1.76351 5.93415L0.803638 4.95512L0.162351 5.58386L1.12223 6.56289L0.160294 7.506L0.800211 8.15869L1.76214 7.21558L2.72202 8.19461L3.3633 7.56587L2.40343 6.58684L2.74459 6.25235Z" fill="#FF0063"/>
</svg>
