<svg width="20" height="20" viewBox="0 0 20 20" fill="none" xmlns="http://www.w3.org/2000/svg">
<g clip-path="url(#clip0_3_696)">
<path fill-rule="evenodd" clip-rule="evenodd" d="M10 1.875C5.51269 1.875 1.875 5.51269 1.875 10C1.875 14.4873 5.51269 18.125 10 18.125C14.4873 18.125 18.125 14.4873 18.125 10C18.1203 5.51465 14.4853 1.87974 10 1.875ZM15.9781 13.3922H13.3516L12.6281 12.3953L13.6148 9.52188L14.7867 9.13984L16.8367 10.7125C16.7397 11.6557 16.4473 12.5683 15.9781 13.3922ZM3.16563 10.7125L5.21172 9.14062L6.38359 9.52266L7.37031 12.3961L6.64844 13.3922H4.02187C3.55215 12.5684 3.2592 11.6558 3.16172 10.7125H3.16563ZM3.94688 6.75625L4.37734 8.20938L3.18047 9.12266C3.28658 8.29401 3.54397 7.49191 3.93984 6.75625H3.94688ZM8.51562 11.875L7.62031 9.26953L10 7.63359L12.3797 9.26953L11.4844 11.875H8.51562ZM15.6305 8.20938L16.0609 6.75625C16.4568 7.49191 16.7142 8.29401 16.8203 9.12266L15.6305 8.20938ZM15.1461 5.44531L14.4031 7.95156L13.2258 8.33359L10.625 6.54609V5.32891L12.8977 3.76641C13.7536 4.16671 14.5186 4.73809 15.1453 5.44531H15.1461ZM11.4117 3.27109L10 4.24141L8.58828 3.27109C9.51935 3.0763 10.4807 3.0763 11.4117 3.27109ZM7.10234 3.76641L9.375 5.32891V6.54609L6.775 8.33359L5.59766 7.95156L4.85469 5.44531C5.48142 4.73809 6.24636 4.16671 7.10234 3.76641ZM4.93359 14.6422H6.525L7.08516 16.2258C6.27174 15.843 5.54088 15.3051 4.93359 14.6422ZM8.59375 16.7289L7.66563 14.118L8.38672 13.125H11.6133L12.3344 14.118L11.4102 16.7289C10.4802 16.9238 9.51985 16.9238 8.58984 16.7289H8.59375ZM12.9187 16.2258L13.4789 14.6422H15.0703C14.4619 15.3055 13.7297 15.8434 12.9148 16.2258H12.9187Z" fill="#0D121C"/>
</g>
<defs>
<clipPath id="clip0_3_696">
<rect width="20" height="20" fill="white"/>
</clipPath>
</defs>
</svg>
