<svg width="8" height="8" viewBox="0 0 8 8" fill="none" xmlns="http://www.w3.org/2000/svg">
<path d="M7.53847 0H5.69237C5.56997 0 5.45258 0.0486202 5.36602 0.135165C5.27947 0.221709 5.23084 0.339089 5.23084 0.461481C5.23084 0.583874 5.27947 0.701254 5.36602 0.787798C5.45258 0.874343 5.56997 0.922963 5.69237 0.922963H6.42312L5.16469 2.18204C4.51049 1.69317 3.69539 1.47019 2.88342 1.55797C2.07144 1.64575 1.32284 2.03778 0.788253 2.65516C0.253667 3.27254 -0.0272297 4.06947 0.00208346 4.88557C0.0313967 5.70168 0.368745 6.4764 0.946247 7.05384C1.52375 7.63129 2.29854 7.96861 3.11473 7.99792C3.93091 8.02723 4.72791 7.74636 5.34535 7.21182C5.9628 6.67729 6.35486 5.92876 6.44265 5.11686C6.53043 4.30496 6.30744 3.48994 5.81852 2.8358L7.07695 1.57673V2.30741C7.07695 2.4298 7.12557 2.54718 7.21213 2.63372C7.29868 2.72027 7.41607 2.76889 7.53847 2.76889C7.66088 2.76889 7.77827 2.72027 7.86482 2.63372C7.95137 2.54718 8 2.4298 8 2.30741V0.461481C8 0.339089 7.95137 0.221709 7.86482 0.135165C7.77827 0.0486202 7.66088 0 7.53847 0ZM4.86201 6.40152C4.53924 6.72412 4.12806 6.94379 3.68045 7.03274C3.23284 7.1217 2.7689 7.07595 2.34729 6.90128C1.92568 6.72661 1.56533 6.43086 1.31181 6.05143C1.05829 5.672 0.92297 5.22593 0.92297 4.7696C0.92297 4.31328 1.05829 3.8672 1.31181 3.48777C1.56533 3.10834 1.92568 2.8126 2.34729 2.63793C2.7689 2.46326 3.23284 2.41751 3.68045 2.50646C4.12806 2.59542 4.53924 2.81509 4.86201 3.13769C5.29404 3.57094 5.53664 4.15779 5.53664 4.7696C5.53664 5.38142 5.29404 5.96827 4.86201 6.40152Z" fill="#0188E0"/>
</svg>
