<svg width="17" height="18" viewBox="0 0 17 18" fill="none" xmlns="http://www.w3.org/2000/svg">
<path fill-rule="evenodd" clip-rule="evenodd" d="M16.8016 16.0578L12.8898 12.1469C15.2451 9.3192 14.9597 5.13911 12.242 2.65779C9.52423 0.176469 5.33549 0.271665 2.73327 2.87389C0.13104 5.47612 0.0358443 9.66485 2.51717 12.3826C4.99849 15.1004 9.17857 15.3858 12.0063 13.0305L15.9172 16.9422C16.1614 17.1864 16.5574 17.1864 16.8016 16.9422C17.0458 16.698 17.0458 16.302 16.8016 16.0578ZM1.98438 7.75C1.98438 4.6434 4.50277 2.125 7.60938 2.125C10.716 2.125 13.2344 4.6434 13.2344 7.75C13.2344 10.8566 10.716 13.375 7.60938 13.375C4.5042 13.3716 1.98782 10.8552 1.98438 7.75Z" fill="#0D121C"/>
</svg>
