<svg width="25" height="24" viewBox="0 0 25 24" fill="none" xmlns="http://www.w3.org/2000/svg">
<g clip-path="url(#clip0_3_635)">
<path fill-rule="evenodd" clip-rule="evenodd" d="M21.8587 20.4694L17.1647 15.7762C19.991 12.383 19.6486 7.36693 16.3873 4.38935C13.1259 1.41176 8.09947 1.526 4.9768 4.64867C1.85412 7.77134 1.73989 12.7978 4.71747 16.0591C7.69506 19.3204 12.7112 19.6629 16.1044 16.8366L20.7975 21.5306C21.0906 21.8237 21.5657 21.8237 21.8587 21.5306C22.1518 21.2376 22.1518 20.7624 21.8587 20.4694ZM4.07812 10.5C4.07812 6.77208 7.1002 3.75 10.8281 3.75C14.556 3.75 17.5781 6.77208 17.5781 10.5C17.5781 14.2279 14.556 17.25 10.8281 17.25C7.10192 17.2459 4.08226 14.2262 4.07812 10.5Z" fill="#4A699C"/>
</g>
<defs>
<clipPath id="clip0_3_635">
<rect width="24" height="24" fill="white" transform="translate(0.328125)"/>
</clipPath>
</defs>
</svg>
